<svg width="1440" height="387" viewBox="0 0 1440 387" fill="none" xmlns="http://www.w3.org/2000/svg">
<path d="M0 127.85V304H717L1440 315V112.61C1202.77 180.91 951.91 217.53 692.41 217.53C452.94 217.53 220.83 186.34 0 127.85Z" fill="white"/>
<path opacity="0.25" d="M1440 71.83V0C1269.43 28.15 1019.09 126.83 786.16 169.38C979.36 182.16 1221 168.05 1440 71.83Z" fill="white"/>
<path opacity="0.35" d="M786.16 169.38C586.81 156.2 446.28 112.61 421.16 104.68C371.3 88.92 153.08 32.87 0 2.57996V91.58C197.45 164.58 401.39 182.67 566.46 188.73C635.55 191.22 709.92 183.31 786.16 169.38Z" fill="white"/>
<path opacity="0.5" d="M786.16 169.38C709.92 183.31 635.55 191.22 566.46 188.68C401.39 182.62 197.45 164.51 0 91.53V127.85C220.83 186.34 452.94 217.53 692.41 217.53C951.91 217.53 1202.77 180.91 1440 112.61V71.83C1221 168.05 979.36 182.16 786.16 169.38Z" fill="white"/>
</svg>
