<svg xmlns="http://www.w3.org/2000/svg" xmlns:xlink="http://www.w3.org/1999/xlink" viewBox="0 0 555.52 98.72"><defs><style>.a{fill:url(#a);}.b{fill:url(#b);}.c{fill:url(#c);}.d{fill:url(#d);}.e{fill:url(#e);}.f{fill:url(#f);}.g{fill:url(#g);}.h{fill:url(#h);}.i{fill:url(#i);}.j{fill:url(#j);}.k{fill:url(#k);}.l{fill:url(#l);}.m{fill:url(#m);}</style><linearGradient id="a" x1="57.99" y1="1.29" x2="57.99" y2="98.72" gradientUnits="userSpaceOnUse"><stop offset="0" stop-color="#1a5593"/><stop offset="0.4" stop-color="#126097"/><stop offset="0.7" stop-color="#165c95"/><stop offset="1" stop-color="#214f90"/></linearGradient><linearGradient id="b" x1="231.81" y1="7.54" x2="231.81" y2="79.98" xlink:href="#a"/><linearGradient id="c" x1="483.38" y1="7.54" x2="483.38" y2="79.37" xlink:href="#a"/><linearGradient id="d" x1="383.08" y1="7.54" x2="383.08" y2="79.37" xlink:href="#a"/><linearGradient id="e" x1="136.46" y1="25.73" x2="136.46" y2="79.87" xlink:href="#a"/><linearGradient id="f" x1="430.77" y1="25.24" x2="430.77" y2="79.37" xlink:href="#a"/><linearGradient id="g" x1="531.11" y1="25.23" x2="531.11" y2="79.37" xlink:href="#a"/><linearGradient id="h" x1="330.39" y1="25.47" x2="330.39" y2="79.37" xlink:href="#a"/><linearGradient id="i" x1="182.32" y1="25.84" x2="182.32" y2="80.08" xlink:href="#a"/><linearGradient id="j" x1="272.89" y1="7.44" x2="272.89" y2="79.36" xlink:href="#a"/><linearGradient id="k" x1="294.67" y1="25.47" x2="294.67" y2="79.37" xlink:href="#a"/><linearGradient id="l" x1="142.31" y1="6.66" x2="142.31" y2="21.1" xlink:href="#a"/><linearGradient id="m" x1="302.29" y1="0" x2="302.29" y2="17.46" xlink:href="#a"/></defs><path class="a" d="M16,47.44a9.59,9.59,0,0,1-4.39.56C5.21,47.14,1.13,43.18.2,36.83A22.09,22.09,0,0,1,2,24.89,38.28,38.28,0,0,1,15.75,8.46a37.46,37.46,0,0,1,16.4-6.78A33,33,0,0,1,54.23,5.8,15.79,15.79,0,0,1,61.9,15.91a15.21,15.21,0,0,1,.39,5.16,4.87,4.87,0,0,0,0,.54s0,.07.12.18l.47-.65a32.87,32.87,0,0,1,7.81-8.36A16.7,16.7,0,0,1,79.85,9.6,8.53,8.53,0,0,1,89,17.21c.19,1.4.19,2.82.29,4.32.15-.2.31-.39.45-.59a34.08,34.08,0,0,1,6.76-7.52,17,17,0,0,1,9.92-3.82,8.72,8.72,0,0,1,9.43,8.06,21.79,21.79,0,0,1-1.32,9c-2.1,6.65-4.33,13.25-6.48,19.88a137,137,0,0,0-4.21,15.69,37.08,37.08,0,0,0,.63,18.42,16.51,16.51,0,0,0,1.06,2.62c1.59,3.21,4.16,5.81,9.33,5.21a13.08,13.08,0,0,1-.15,1.91c-.88,4.07-5.47,8-9.62,8.29-4.85.38-8.57-1.64-11.53-5.28a27.2,27.2,0,0,1-5.15-11.19A37.72,37.72,0,0,1,87.7,71.4c.58-10.86,3.55-21.16,7.19-31.31,1.54-4.3,3.09-8.59,4.56-12.91a29.65,29.65,0,0,0,1-4.27,4.87,4.87,0,0,0-.08-1.74A1.69,1.69,0,0,0,98,19.79a9,9,0,0,0-2.57,1.42,22.82,22.82,0,0,0-5.2,6.52A68.52,68.52,0,0,0,83,45.34c-1.34,5.18-2.66,10.36-3.88,15.57A41,41,0,0,0,78,70.27a10.09,10.09,0,0,0,1.28,5.59A1.33,1.33,0,0,1,79.1,77a3.6,3.6,0,0,1-1.21,1,13.88,13.88,0,0,1-10.46,1.31A5.83,5.83,0,0,1,63,74.25a25.11,25.11,0,0,1,.08-7.74c1.19-8.65,3.83-17,6.08-25.35,1.44-5.38,2.75-10.8,4.13-16.2.16-.65.32-1.31.47-2a.86.86,0,0,0,.05-.27A2.83,2.83,0,0,0,72.87,20c-.94-.66-1.87-.23-2.73.24a14.35,14.35,0,0,0-4.45,4.29,51.4,51.4,0,0,0-6.52,12.32C58,40,56.92,43.24,55.83,46.45A124.48,124.48,0,0,0,51.63,63a34.86,34.86,0,0,0-.75,9A7.69,7.69,0,0,0,52,75.87a1.17,1.17,0,0,1-.17,1.64,6.32,6.32,0,0,1-1.53,1.1,13.24,13.24,0,0,1-9.48.8c-2.87-.82-4.28-2.72-4.62-5.82a35,35,0,0,1,.61-10c1.46-8.18,4-16.1,6.07-24.12,1.63-6.17,3.14-12.37,4.62-18.58a19.53,19.53,0,0,0,.5-7.23,5.4,5.4,0,0,0-5.48-5,16.67,16.67,0,0,0-9.09,2.38A37.61,37.61,0,0,0,22,21.3a38.64,38.64,0,0,0-7.44,14.86,15,15,0,0,0,.06,8.26A30.47,30.47,0,0,0,16,47.44Z"/><path class="b" d="M231.91,12c.67-.33,1.35-.67,2-1a33.59,33.59,0,0,1,9.8-3.13,15.34,15.34,0,0,1,8.87,1,9.28,9.28,0,0,1,5.2,9.62c-.45,4.49-2.74,8-5.79,11.17A32.17,32.17,0,0,1,245.19,35l-.72.45c.89.25,1.65.42,2.38.67,5.75,1.93,9.79,5.58,11.37,11.56,1.25,4.71.26,9.15-2.1,13.32a30.58,30.58,0,0,1-10,10.22,54.79,54.79,0,0,1-12.42,6.07,49.56,49.56,0,0,1-11,2.42,43.5,43.5,0,0,1-6.94.25,16.47,16.47,0,0,1-4.79-1c-3.78-1.4-5.54-4.4-6-8.26a34,34,0,0,1,1.15-12.09c1.54-6.49,3.83-12.74,6-19a137.81,137.81,0,0,0,4.46-15.12,29,29,0,0,0,.77-8,9.1,9.1,0,0,0-2.26-5.86A.89.89,0,0,1,215.3,9a6.22,6.22,0,0,1,1.73-.7,22.09,22.09,0,0,1,8.37-.64C228.33,8,230,9.13,231.91,12ZM233,41.1l0-.2c-2.17.37-4.34.76-6.51,1.1a1.42,1.42,0,0,0-1.35,1.32,10.09,10.09,0,0,1-.33,1.16c-1.94,6.69-4,13.36-4.6,20.35a13,13,0,0,0,.46,5.48A3.79,3.79,0,0,0,225.22,73a22.17,22.17,0,0,0,12.56-6.65c4.26-4.48,6.94-9.67,6.49-16a9.06,9.06,0,0,0-5.7-8.19A13.86,13.86,0,0,0,233,41.1Zm-5.76-4.57a3.6,3.6,0,0,0,.66-.09c1.75-.56,3.55-1,5.24-1.74a18.58,18.58,0,0,0,8.46-6.6,11.19,11.19,0,0,0,2.13-6.83,5.67,5.67,0,0,0-4.55-5.62,9.43,9.43,0,0,0-5.44.91,2.74,2.74,0,0,0-1.84,2.23c-.91,4.19-2,8.33-3.09,12.48C228.38,33,227.81,34.71,227.26,36.53Z"/><path class="c" d="M491,35.6c.13-.4.21-.6.26-.8,1.24-5.11,2.54-10.21,3.68-15.34a20,20,0,0,0,.48-7.44,25.58,25.58,0,0,0-.7-2.69,3.1,3.1,0,0,1,.48-.31,14.69,14.69,0,0,1,10.4-.91,6.45,6.45,0,0,1,4.67,5.79c.39,2.82-.31,5.5-1,8.17-2.2,8.07-4.52,16.1-6.57,24.2-1.28,5-2.22,10.09-3.18,15.17a27.8,27.8,0,0,0-.44,7.73,12.53,12.53,0,0,0,.53,2.56,2.49,2.49,0,0,0,2,1.77c-.84.8-1.58,1.56-2.38,2.24a14,14,0,0,1-6.75,3.5,8.2,8.2,0,0,1-7.86-2.92,6.52,6.52,0,0,1-1.29-3.78,25.89,25.89,0,0,1,.23-6.4,1.15,1.15,0,0,0-.11-.66c-.11.21-.24.41-.35.62a32,32,0,0,1-7.26,9.5,15.07,15.07,0,0,1-7.07,3.49,8.5,8.5,0,0,1-9.17-3.72,18.14,18.14,0,0,1-2.8-7.6c-1.91-11.72,3-26.8,10.45-35.1,2.61-2.92,5.59-5.34,9.45-6.38s7.52-.61,10.65,2.13a11.64,11.64,0,0,1,3.48,6.21C490.85,34.88,490.91,35.14,491,35.6ZM470.26,61.24a32.69,32.69,0,0,0,.25,3.5,13.74,13.74,0,0,0,.93,3.21,2.37,2.37,0,0,0,3.26,1.31,8.72,8.72,0,0,0,3.21-2.08,25.21,25.21,0,0,0,4.54-6,53.3,53.3,0,0,0,5.21-13.33,21.8,21.8,0,0,0,.89-9.1,10.23,10.23,0,0,0-2-5.08,2.87,2.87,0,0,0-3.6-1A7,7,0,0,0,480.5,34a21.76,21.76,0,0,0-3.36,3.95A48.31,48.31,0,0,0,470.26,61.24Z"/><path class="d" d="M390.83,35.38c.19-.66.4-1.31.55-2,1.14-4.81,2.33-9.61,3.37-14.44a19.23,19.23,0,0,0,.36-7.25,18.81,18.81,0,0,0-.68-2.36A3.19,3.19,0,0,1,395,9a15.07,15.07,0,0,1,10-1,6.8,6.8,0,0,1,5.12,6.75,25.76,25.76,0,0,1-1.28,7.89c-2.17,7.93-4.46,15.83-6.48,23.81-1.27,5-2.24,10.13-3.14,15.24a48.34,48.34,0,0,0-.45,7.13,9.32,9.32,0,0,0,.45,2.65,2.66,2.66,0,0,0,2,2c-.23.27-.45.52-.68.76a16.67,16.67,0,0,1-7.61,4.82,8.21,8.21,0,0,1-8.42-2.55A6.2,6.2,0,0,1,383,72.15c0-2.25.1-4.49.16-6.69-.09.14-.23.35-.35.58a31.36,31.36,0,0,1-7.56,9.78,14.22,14.22,0,0,1-8.14,3.44,8.15,8.15,0,0,1-7.18-3A15.84,15.84,0,0,1,356.68,69a38.66,38.66,0,0,1,.55-16.41,47.32,47.32,0,0,1,7.7-17.41,24.77,24.77,0,0,1,8.13-7.51A13.13,13.13,0,0,1,382.12,26c4.42.9,6.95,3.8,8.2,8,.13.45.23.91.34,1.36ZM370,61.26c.08,1.22.06,2.27.23,3.29a14.38,14.38,0,0,0,.81,3.11,2.47,2.47,0,0,0,3.72,1.46,12.32,12.32,0,0,0,2.74-1.82,22,22,0,0,0,4.4-5.62A52.85,52.85,0,0,0,387.33,48c.82-3.13,1.48-6.2.89-9.43a10.08,10.08,0,0,0-2.08-5,2.92,2.92,0,0,0-3.2-1,6.23,6.23,0,0,0-3,1.67A25.17,25.17,0,0,0,376.8,38,48.82,48.82,0,0,0,370,61.26Z"/><path class="e" d="M146,27.43a7.66,7.66,0,0,1,3.09-1.26,13.16,13.16,0,0,1,6.88,0,6.75,6.75,0,0,1,4.88,6c.34,3.06-.42,5.94-1.18,8.84-1.49,5.62-3,11.23-4.43,16.88a37.85,37.85,0,0,0-1.31,10.75,11.59,11.59,0,0,0,.31,2.27,3.53,3.53,0,0,0,2.91,3c-.17.21-.28.37-.42.51a17.25,17.25,0,0,1-7.57,5,8.27,8.27,0,0,1-8.83-2.56,6.31,6.31,0,0,1-1.62-4.14c-.08-1.81,0-3.64.08-5.45a.51.51,0,0,0-.13-.38l-.43.7a29.27,29.27,0,0,1-7.4,9,13.85,13.85,0,0,1-8.32,3.13,8.06,8.06,0,0,1-6.67-3.11,16.38,16.38,0,0,1-3.28-7.75c-1.19-6.55-.33-13,1.56-19.25a43.75,43.75,0,0,1,8.48-16.15,20.4,20.4,0,0,1,9-6.51,11.72,11.72,0,0,1,8.77.25c3.42,1.55,5.15,4.44,6,7.93a3.4,3.4,0,0,0,.32.89C147.2,33.13,147.59,30.22,146,27.43Zm-1.46,14.65c-.15-1.25-.23-2.51-.47-3.75a8.57,8.57,0,0,0-2.13-4.51,2.8,2.8,0,0,0-2.49-.93,6.38,6.38,0,0,0-3,1.36,15.81,15.81,0,0,0-3.58,4.11,40.87,40.87,0,0,0-4.58,10.26C126.62,54,125.55,59.41,126.18,65a12.2,12.2,0,0,0,1.06,3.58,2.14,2.14,0,0,0,3,1.14A11.18,11.18,0,0,0,133,68.12a21.6,21.6,0,0,0,4.86-6A46.61,46.61,0,0,0,143.16,49C143.71,46.68,144.6,44.48,144.53,42.08Z"/><path class="f" d="M441.16,35.57c.32-2.92.72-5.84-.89-8.65a7.64,7.64,0,0,1,1-.54,14.14,14.14,0,0,1,8.54-.81,6.89,6.89,0,0,1,5.43,6.72,28.64,28.64,0,0,1-1.42,9c-1.46,5.49-3,11-4.3,16.5a60.63,60.63,0,0,0-1.25,8.39,16.5,16.5,0,0,0,.37,4.48,3.63,3.63,0,0,0,3,3l-1.85,1.64a15.37,15.37,0,0,1-7.26,4c-4.09.79-9.06-2-9.4-6.65-.12-1.69,0-3.41,0-5.11a2.46,2.46,0,0,0-.1-.94c-.12.18-.24.36-.35.55A31.19,31.19,0,0,1,426,75.44a15.28,15.28,0,0,1-7.35,3.66,8.43,8.43,0,0,1-8.91-3.46A17.1,17.1,0,0,1,406.78,68C405.52,60,407,52.22,410,44.72a39.44,39.44,0,0,1,7.91-12.8,18.92,18.92,0,0,1,8.89-5.68c6.85-1.81,12.51,1.73,14.06,8.75a6.09,6.09,0,0,0,.17.61Zm-21,25.8a25.26,25.26,0,0,0,.21,3,17.18,17.18,0,0,0,1,3.56,2.39,2.39,0,0,0,3.35,1.33,9.7,9.7,0,0,0,3.68-2.57,30.07,30.07,0,0,0,4.64-6.54c2.19-3.9,3.4-8.15,4.62-12.42a20.19,20.19,0,0,0,.78-9.38,10.39,10.39,0,0,0-1.75-4.41,3.11,3.11,0,0,0-4.14-1.21,8.57,8.57,0,0,0-1.92,1.11,14.27,14.27,0,0,0-3.6,4.17A49.46,49.46,0,0,0,420.21,61.37Z"/><path class="g" d="M541.47,35.54c.32-2.89.71-5.79-.89-8.59a4,4,0,0,1,.62-.42,13.43,13.43,0,0,1,9.55-.74,6.46,6.46,0,0,1,4.63,5.68c.45,3-.25,5.82-1,8.65-1.45,5.41-3,10.79-4.31,16.22a42.83,42.83,0,0,0-1.57,11.54,12.63,12.63,0,0,0,.37,2.66,3.52,3.52,0,0,0,2.87,3c-.24.26-.45.52-.69.75a16.49,16.49,0,0,1-7.68,4.84,8.25,8.25,0,0,1-8.53-2.77,6.53,6.53,0,0,1-1.57-4.23c-.07-1.68,0-3.37.09-5V66.3l-.47.75a31.68,31.68,0,0,1-6.42,8.23A15.74,15.74,0,0,1,519,79.1a8.55,8.55,0,0,1-9.16-3.75,16.77,16.77,0,0,1-2.81-7.8c-1.39-12.83,2.14-24.28,10.07-34.38a19.34,19.34,0,0,1,9-6.61,11.67,11.67,0,0,1,9,.19c3.4,1.55,5.13,4.39,6,7.87l.24,1Zm-21,25.72c.07,1.22.07,2.26.22,3.28a14,14,0,0,0,.7,2.87c.75,2,2.19,2.56,4.09,1.61a11.57,11.57,0,0,0,2.39-1.62,23.36,23.36,0,0,0,4.6-5.81,51.93,51.93,0,0,0,5.36-13.49c.86-3.17,1.51-6.29.91-9.57a10.2,10.2,0,0,0-2.07-5,2.93,2.93,0,0,0-3.2-1.06,6.13,6.13,0,0,0-3,1.66A24.6,24.6,0,0,0,527.38,38,48.61,48.61,0,0,0,520.52,61.26Z"/><path class="h" d="M327.62,38.6c1.28-1.51,2.39-2.93,3.61-4.25a24.9,24.9,0,0,1,10-7,11.64,11.64,0,0,1,8.08-.2,8.23,8.23,0,0,1,5.42,6.92,18.63,18.63,0,0,1-.91,7.78c-1.48,5.56-3.09,11.09-4.57,16.65a34.58,34.58,0,0,0-1.56,10.3,8.38,8.38,0,0,0,.32,1.92c.49,1.64,1.47,2.41,3.44,2.74-.47.58-.88,1.13-1.35,1.64a11.8,11.8,0,0,1-9,4.16,9.92,9.92,0,0,1-3.93-.85,6.74,6.74,0,0,1-4-5.39,19.51,19.51,0,0,1,.51-8.83c1.49-5.67,3.15-11.3,4.69-17,.62-2.31,1.18-4.66,1.6-7a7.66,7.66,0,0,0-.2-3.19,2.53,2.53,0,0,0-3.42-1.84,8.25,8.25,0,0,0-3.53,2.3,28.64,28.64,0,0,0-5.58,8.17c-1.49,3.15-2.89,6.36-4.08,9.63a28.78,28.78,0,0,0-1.21,5.79,52,52,0,0,0-.56,6.58,12,12,0,0,0,.65,3.69,2.9,2.9,0,0,0,2.6,2.09c-.17.2-.3.37-.45.53a17.35,17.35,0,0,1-7.9,5.11c-4.46,1.21-9.28-1.76-10-5.82a20.26,20.26,0,0,1-.11-6.12c.77-6.44,2.8-12.58,4.45-18.81q1.56-5.9,2.84-11.86a15.62,15.62,0,0,0,.09-7,18.19,18.19,0,0,0-.85-2.27,8.18,8.18,0,0,1,2.94-1.2,14.84,14.84,0,0,1,7.16-.25,6.85,6.85,0,0,1,5.58,6.86,20.73,20.73,0,0,1-.6,5.49Z"/><path class="i" d="M175.35,54.17a2.75,2.75,0,0,0-.11.39c-.21,3.25-.21,6.49,1.08,9.57,1.65,3.94,4.87,5.48,9,5.18a15.35,15.35,0,0,0,9.91-4.42,12.24,12.24,0,0,0,3.14-5.25,4.25,4.25,0,0,1,.94,2.73c.27,4.21-1.46,7.68-4.24,10.67a22.18,22.18,0,0,1-12.18,6.53A19.16,19.16,0,0,1,171,78.63a17.4,17.4,0,0,1-10.63-14c-.71-4.35.05-8.62,1.09-12.83a35.28,35.28,0,0,1,10.39-18,29.27,29.27,0,0,1,15.65-7.71,18.29,18.29,0,0,1,10.73,1.17,10.22,10.22,0,0,1,6.36,9.76c.07,5-2,9.08-5.35,12.59a24.49,24.49,0,0,1-14.69,7.67,15.41,15.41,0,0,1-4.29,0C178.15,57,177.21,56.26,175.35,54.17Zm.13-1.56c.31,0,.44.06.58.06a14.08,14.08,0,0,0,6-1.49,19.49,19.49,0,0,0,9-10.13,15,15,0,0,0,1.38-6.94c-.16-2.48-1.67-3.61-4-2.86a10.57,10.57,0,0,0-2.53,1.23,17.78,17.78,0,0,0-5,5.42A38.86,38.86,0,0,0,176,50C175.78,50.86,175.66,51.7,175.48,52.61Z"/><path class="j" d="M277.69,73.49a21,21,0,0,1-5,4.19,10.16,10.16,0,0,1-6.23,1.64c-3.11-.3-6.86-2.44-7-7.13a50.31,50.31,0,0,1,1.31-12.12c1.79-8.51,4.39-16.82,6.61-25.23,1.27-4.84,2.42-9.72,3.51-14.61a23.41,23.41,0,0,0,.63-7.78,28.54,28.54,0,0,0-.69-3.12l-.23,0a5.5,5.5,0,0,1,.64-.43,15,15,0,0,1,10-1c3.15.83,4.95,3.35,5.11,6.69a26.82,26.82,0,0,1-1.3,8.15c-2.31,8.62-4.66,17.23-6.89,25.86a104.48,104.48,0,0,0-2.74,14.57,22.06,22.06,0,0,0,.09,7.73A3,3,0,0,0,277.69,73.49Z"/><path class="k" d="M290,27.31a10,10,0,0,1,3.7-1.41,14.38,14.38,0,0,1,7,0,6.77,6.77,0,0,1,5.09,6.55c.15,3-.67,5.87-1.42,8.75-1.46,5.58-3,11.15-4.32,16.76a35.67,35.67,0,0,0-1.16,10,13.27,13.27,0,0,0,.43,2.79,3.4,3.4,0,0,0,2.8,2.69c-.14.17-.25.33-.38.47a17.1,17.1,0,0,1-8,5.14,8.26,8.26,0,0,1-8.55-2.72,7.32,7.32,0,0,1-1.64-4.55,34.18,34.18,0,0,1,1.29-11.21c1.51-5.92,3.18-11.8,4.71-17.72A41.34,41.34,0,0,0,291.29,32,8.18,8.18,0,0,0,290,27.31Z"/><path class="l" d="M124.35,18.44c-.8-.92-1.57-1.77-2.3-2.65a.61.61,0,0,1,0-.57c2.53-3,5.24-5.86,8.91-7.53a11.47,11.47,0,0,1,9.7.1c1.87.81,3.66,1.84,5.54,2.64a20.35,20.35,0,0,0,4,1.29A5.87,5.87,0,0,0,155,10.48a20.89,20.89,0,0,0,2.7-2.54.85.85,0,0,1,1.14-.25,6.43,6.43,0,0,1,2.55,9.69A8.83,8.83,0,0,1,156,20.73a12.78,12.78,0,0,1-10.33-1.9c-1.39-.91-2.73-1.91-4.1-2.85-.76-.53-1.54-1-2.33-1.5a8.91,8.91,0,0,0-8.85-.3,23.6,23.6,0,0,0-5.28,3.63Z"/><path class="m" d="M301.07,17.46a11.61,11.61,0,0,1-4.47-.92c-3.6-1.59-5.06-5-3.75-9,1.36-4.14,4.38-6.42,8.53-7.3A10.91,10.91,0,0,1,307,.49,6.92,6.92,0,0,1,312,9a10.29,10.29,0,0,1-8.72,8.18C302.55,17.33,301.81,17.38,301.07,17.46Z"/></svg>