<svg width="1440" height="537" viewBox="0 0 1440 537" fill="none" xmlns="http://www.w3.org/2000/svg">
<g clip-path="url(#clip0)">
<path d="M2001 359.26L2001 -0.000213623L-3.32598e-05 -3.86901e-05L0 380.447C329.651 285.495 678.242 234.586 1038.84 234.586C1371.6 234.585 1694.14 277.946 2001 359.26Z" fill="white"/>
<path opacity="0.25" d="M-8.72999e-06 437.141L0 537C237.021 497.865 584.89 360.678 908.565 301.525C640.098 283.758 304.319 303.374 -8.72999e-06 437.141Z" fill="white"/>
<path opacity="0.35" d="M908.565 301.525C1185.58 319.848 1380.86 380.447 1415.76 391.472C1485.05 413.382 1788.28 491.303 2001 533.413L2001 409.684C1726.63 308.198 1443.24 283.048 1213.86 274.624C1117.85 271.162 1014.51 282.159 908.565 301.525Z" fill="white"/>
<path opacity="0.5" d="M908.565 301.525C1014.51 282.159 1117.85 271.162 1213.86 274.693C1443.24 283.118 1726.63 308.295 2001 409.753L2001 359.26C1694.14 277.946 1371.6 234.585 1038.84 234.585C678.242 234.585 329.651 285.495 -4.95627e-06 380.447L0 437.141C304.319 303.374 640.098 283.758 908.565 301.525Z" fill="white"/>
</g>
<defs>
<clipPath id="clip0">
<rect width="2001" height="537" fill="white" transform="translate(2001 537) rotate(180)"/>
</clipPath>
</defs>
</svg>
